<svg width="95" height="96" viewBox="0 0 95 96" fill="none" xmlns="http://www.w3.org/2000/svg">
<path d="M77.5304 51.1796L73.3047 79.4169" stroke="#00FF00" stroke-width="1.5" stroke-miterlimit="10"/>
<path d="M54.5878 87.5585L45.0234 35.4074" stroke="#4D4D4D" stroke-width="1.5" stroke-miterlimit="10"/>
<path d="M45.0247 35.4074L35.4629 87.5585" stroke="#4D4D4D" stroke-width="1.5" stroke-miterlimit="10"/>
<path d="M53.9343 83.9907L38.1621 72.8287L39.0365 68.0621L49.4881 58.7113" stroke="#4D4D4D" stroke-width="1.5" stroke-miterlimit="10"/>
<path d="M45.0247 36.4237L42.0605 87.5584" stroke="#4D4D4D" stroke-width="1.5" stroke-miterlimit="10"/>
<path d="M92.3487 93H2.6513C2.29232 93 2 92.7029 2 92.3381V88.223C2 87.8581 2.29232 87.561 2.6513 87.561H92.3487C92.7077 87.561 93 87.8581 93 88.223V92.3381C93.0026 92.7029 92.7102 93 92.3487 93Z" stroke="#4D4D4D" stroke-width="1.5" stroke-miterlimit="10"/>
<path d="M9.9375 48.3989V82.9821" stroke="#4D4D4D" stroke-width="1.5" stroke-miterlimit="10"/>
<path d="M13.7806 82.9821H5.76758V87.5585H13.7806V82.9821Z" stroke="#4D4D4D" stroke-width="1.5" stroke-miterlimit="10"/>
<path d="M77.2455 79.4169H69.2324V87.561H77.2455V79.4169Z" stroke="#4D4D4D" stroke-width="1.5" stroke-miterlimit="10"/>
<path d="M77.5321 51.1796C79.0687 51.1796 80.3143 49.9137 80.3143 48.352C80.3143 46.7903 79.0687 45.5244 77.5321 45.5244C75.9956 45.5244 74.75 46.7903 74.75 48.352C74.75 49.9137 75.9956 51.1796 77.5321 51.1796Z" stroke="#00FF00" stroke-width="1.5" stroke-miterlimit="10"/>
<path d="M20.3047 25.2643L74.8883 47.2157" stroke="#00FF00" stroke-width="1.5" stroke-miterlimit="10"/>
<path d="M8.31089 47.0776L4.17488 38.4565C3.89795 37.878 3.85692 37.2134 4.06462 36.6036L15.2367 3.63618C15.6649 2.36961 17.024 1.69723 18.2701 2.13245L24.8396 4.43105C26.0857 4.86627 26.7473 6.24751 26.3191 7.51408L12.9726 46.8952C12.5443 48.1617 11.1853 48.8341 9.93914 48.3989L9.6776 48.3077C9.08015 48.0966 8.59039 47.6561 8.31089 47.0776Z" stroke="#4D4D4D" stroke-width="1.5" stroke-miterlimit="10"/>
</svg>
