<svg width="220" height="41" viewBox="0 0 220 41" fill="none" xmlns="http://www.w3.org/2000/svg">
<path d="M24.5776 21.8152C24.239 21.4236 24.0006 20.9543 23.883 20.4481C23.7655 19.942 23.7724 19.4145 23.9033 18.9117L27.8697 4.01356C28.0538 3.34676 28.0163 2.6374 27.7628 1.99422C27.5094 1.35104 27.054 0.80953 26.4666 0.452715C25.8791 0.0958999 25.1919 -0.0565339 24.5104 0.0187907C23.8289 0.0941152 23.1907 0.393035 22.6936 0.869727L9.40634 13.3449C8.90686 13.8115 8.57248 14.4304 8.4544 15.1071L6.6497 25.2594C6.573 25.6638 6.41787 26.049 6.19324 26.3926C5.96861 26.7363 5.67896 27.0317 5.34086 27.2619L1.3745 29.9652C0.939563 30.2631 0.585817 30.6666 0.345816 31.1387C0.105815 31.6108 -0.0127411 32.1363 0.0010845 32.6668C0.0149101 33.1972 0.160658 33.7157 0.424918 34.1744C0.689178 34.6331 1.06342 35.0173 1.51328 35.2917L6.07462 38.0751C6.48523 38.3255 6.94729 38.4774 7.42522 38.5191C7.90315 38.5607 8.38416 38.491 8.8312 38.3154L27.0169 31.2067C27.4891 31.024 27.9105 30.7286 28.2451 30.3458C28.5797 29.9629 28.8175 29.504 28.9383 29.0082C29.0591 28.5124 29.0594 27.9945 28.9389 27.4986C28.8184 27.0027 28.5808 26.5436 28.2465 26.1606L24.5776 21.8152Z" fill="#00FF00"/>
<path d="M56.6853 17.1097C56.4231 16.7941 56.0952 16.5409 55.725 16.3678C55.3548 16.1948 54.9514 16.1062 54.5435 16.1084H32.0741C31.5513 16.1162 31.0412 16.2729 30.6027 16.5605C30.1642 16.848 29.815 17.2548 29.5953 17.7339C29.3757 18.2131 29.2945 18.7451 29.3611 19.2688C29.4277 19.7925 29.6395 20.2865 29.9719 20.694L46.6505 40.0376C47.022 40.4656 47.5131 40.7703 48.0592 40.9116C48.6052 41.0528 49.1809 41.0242 49.7106 40.8293C50.2402 40.6344 50.6991 40.2825 51.0272 39.8196C51.3553 39.3567 51.5371 38.8045 51.5489 38.2354L51.7075 26.6413C51.7176 26.026 51.9265 25.4309 52.3024 24.9465C52.6783 24.4622 53.2006 24.115 53.7899 23.958L56.5862 23.1971C57.0383 23.0742 57.4525 22.8386 57.791 22.512C58.1295 22.1854 58.3813 21.7782 58.5234 21.3278C58.6655 20.8774 58.6933 20.3982 58.6043 19.9341C58.5154 19.47 58.3124 19.0359 58.0141 18.6716L56.6853 17.1097Z" fill="#00FF00"/>
<path d="M68.7233 32.5284H65.5106V16.1084H68.4456L74.8513 26.441V16.1084H78.0442V32.5284H75.2677L68.7034 22.1758L68.7233 32.5284Z" fill="#EEEEEE"/>
<path d="M87.0878 27.8627L91.0542 16.1084H94.485L88.5355 32.5284H85.5607L79.6112 16.1084H83.062L87.0878 27.8627Z" fill="#EEEEEE"/>
<path d="M100.037 32.5284H96.8246V16.1084H100.037V32.5284Z" fill="#EEEEEE"/>
<path d="M117.509 26.0205L120.98 32.5284H117.351L114.416 26.5211H112.194V32.5284H109.001V16.1084H114.812C118.778 16.1084 120.762 17.8505 120.762 21.3548C120.795 22.421 120.481 23.4689 119.869 24.3384C119.288 25.1467 118.458 25.7382 117.509 26.0205V26.0205ZM112.194 24.018H115.01C115.349 24.0343 115.688 23.9765 116.003 23.8486C116.318 23.7208 116.602 23.5258 116.835 23.2771C117.068 23.0254 117.25 22.7294 117.369 22.4063C117.488 22.0832 117.543 21.7394 117.529 21.3948C117.584 21.0235 117.551 20.6443 117.433 20.2882C117.316 19.9321 117.116 19.6091 116.851 19.3456C116.587 19.0821 116.264 18.8854 115.909 18.7718C115.555 18.6581 115.179 18.6306 114.812 18.6915H112.194V24.018Z" fill="#EEEEEE"/>
<path d="M133.514 32.5284H123.281V16.1084H133.355V18.6915H126.414V22.8967H132.899V25.5199H126.414V29.9052H133.435L133.514 32.5284Z" fill="#EEEEEE"/>
<path d="M141.903 32.7085C140.294 32.774 138.707 32.3102 137.381 31.3869C136.786 30.9139 136.313 30.3028 136.002 29.6055C135.691 28.9082 135.552 28.1454 135.596 27.382H138.63C138.618 27.7884 138.687 28.1931 138.833 28.5717C138.98 28.9503 139.201 29.295 139.483 29.5847C140.202 30.0863 141.072 30.3199 141.942 30.2455C142.658 30.2748 143.36 30.0479 143.926 29.6048C144.158 29.4142 144.345 29.1728 144.472 28.8988C144.599 28.6249 144.663 28.3254 144.659 28.0228C144.662 27.7438 144.594 27.4686 144.462 27.2234C144.331 26.9781 144.139 26.7709 143.906 26.6211C143.091 26.1603 142.217 25.8166 141.308 25.5999C140.282 25.3047 139.281 24.9297 138.313 24.4785C137.592 24.1216 136.984 23.5692 136.557 22.8831C136.13 22.197 135.9 21.4043 135.894 20.5938C135.872 19.9366 136.011 19.2841 136.298 18.6939C136.585 18.1037 137.011 17.594 137.54 17.2097C138.789 16.3188 140.295 15.8684 141.823 15.9281C143.281 15.8917 144.71 16.3422 145.889 17.2097C146.452 17.6387 146.902 18.2009 147.2 18.8469C147.497 19.4929 147.633 20.2028 147.594 20.9142H144.56C144.56 19.2722 143.648 18.4312 141.823 18.4312C141.122 18.3946 140.428 18.5839 139.84 18.9718C139.601 19.1601 139.411 19.4044 139.287 19.6835C139.162 19.9627 139.107 20.2683 139.126 20.5738C139.128 20.8485 139.203 21.1177 139.342 21.3536C139.482 21.5894 139.681 21.7834 139.92 21.9154C140.75 22.3782 141.636 22.7283 142.557 22.9567C143.582 23.224 144.579 23.5929 145.532 24.058C146.229 24.3846 146.83 24.8883 147.277 25.5198C147.705 26.188 147.932 26.9669 147.932 27.7625C147.957 28.4565 147.826 29.1472 147.548 29.7822C147.27 30.4172 146.851 30.9798 146.325 31.427C145.049 32.3724 143.481 32.8269 141.903 32.7085V32.7085Z" fill="#EEEEEE"/>
<path d="M160.584 32.5284H150.351V16.1084H160.405V18.6915H153.563V22.8967H160.128V25.5199H153.663V29.9052H160.683L160.584 32.5284Z" fill="#EEEEEE"/>
<path d="M176.469 32.5284H173.039L172.027 29.0442H166.514L165.383 32.5284H161.953L167.902 16.1084H170.738L176.469 32.5284ZM169.171 20.5138L167.188 26.5211H171.035L169.171 20.5138Z" fill="#EEEEEE"/>
<path d="M186.583 26.0205L190.054 32.5284H186.444L183.489 26.5211H181.288V32.5284H178.095V16.1084H183.926C187.892 16.1084 189.875 17.8505 189.875 21.3548C189.908 22.421 189.595 23.4689 188.983 24.3384C188.394 25.1562 187.548 25.749 186.583 26.0205V26.0205ZM181.288 24.018H184.084C184.426 24.0345 184.768 23.977 185.086 23.8492C185.404 23.7214 185.692 23.5263 185.929 23.2771C186.16 23.0245 186.338 22.7278 186.454 22.4046C186.57 22.0814 186.62 21.7381 186.603 21.3948C186.661 21.0266 186.631 20.6497 186.517 20.2951C186.403 19.9405 186.208 19.6182 185.946 19.3546C185.685 19.0909 185.366 18.8934 185.015 18.7782C184.664 18.6629 184.291 18.6332 183.926 18.6915H181.308L181.288 24.018Z" fill="#EEEEEE"/>
<path d="M198.74 32.7086C197.758 32.762 196.777 32.5897 195.87 32.2047C194.963 31.8197 194.154 31.232 193.505 30.4859C192.156 28.5932 191.504 26.2844 191.66 23.9579C191.546 21.7744 192.254 19.628 193.644 17.9506C194.305 17.2475 195.106 16.6946 195.995 16.3286C196.884 15.9626 197.84 15.792 198.8 15.828C200.461 15.7601 202.084 16.3492 203.322 17.47C203.898 18.0207 204.351 18.6902 204.648 19.4331C204.946 20.1759 205.082 20.9747 205.047 21.7753H201.993C201.894 19.5926 200.823 18.5113 198.8 18.5113C198.255 18.4816 197.712 18.5907 197.219 18.8286C196.727 19.0666 196.302 19.4257 195.984 19.873C195.238 21.1109 194.891 22.5524 194.992 23.998C194.893 25.5836 195.237 27.1654 195.984 28.5636C196.278 29.046 196.694 29.441 197.188 29.7084C197.683 29.9757 198.239 30.1058 198.8 30.0854C199.229 30.1324 199.663 30.0821 200.07 29.938C200.477 29.7939 200.847 29.5597 201.153 29.2526C201.459 28.9455 201.694 28.5732 201.839 28.163C201.984 27.7528 202.037 27.3149 201.993 26.8815H205.047C205.082 27.6809 204.944 28.4784 204.642 29.2185C204.341 29.9585 203.883 30.6234 203.302 31.1667C202.041 32.2651 200.402 32.8189 198.74 32.7086V32.7086Z" fill="#EEEEEE"/>
<path d="M210.401 32.5284H207.189V16.1084H210.401V22.9968H216.807V16.1084H220V32.5284H216.807V25.64H210.401V32.5284Z" fill="#EEEEEE"/>
</svg>
