<svg width="221" height="41" viewBox="0 0 221 41" fill="none" xmlns="http://www.w3.org/2000/svg">
<path d="M24.5894 21.7887C24.2506 21.3975 24.0121 20.9287 23.8945 20.4232C23.7769 19.9177 23.7838 19.3908 23.9148 18.8887L27.8831 4.00867C28.0673 3.34269 28.0297 2.63419 27.7761 1.99179C27.5226 1.34939 27.067 0.808543 26.4793 0.452163C25.8915 0.095783 25.204 -0.056465 24.5222 0.0187678C23.8404 0.0940005 23.2019 0.392556 22.7045 0.868667L9.41085 13.3287C8.91113 13.7947 8.57659 14.4129 8.45845 15.0887L6.65289 25.2287C6.57615 25.6326 6.42095 26.0172 6.19621 26.3605C5.97148 26.7037 5.68169 26.9987 5.34342 27.2287L1.37516 29.9287C0.940014 30.2262 0.586098 30.6293 0.345982 31.1008C0.105866 31.5723 -0.0127472 32.0971 0.00108502 32.627C0.0149173 33.1568 0.160735 33.6746 0.425122 34.1328C0.689509 34.5909 1.06394 34.9746 1.51401 35.2487L6.07754 38.0287C6.48834 38.2788 6.95063 38.4305 7.42879 38.4721C7.90695 38.5137 8.38818 38.4441 8.83544 38.2687L27.0299 31.1687C27.5023 30.9862 27.9239 30.6912 28.2587 30.3088C28.5934 29.9264 28.8314 29.4681 28.9522 28.9729C29.0731 28.4777 29.0733 27.9604 28.9528 27.4651C28.8322 26.9698 28.5946 26.5113 28.2601 26.1287L24.5894 21.7887Z" fill="#00FF00"/>
<path d="M56.7115 17.0889C56.4492 16.7738 56.1211 16.5208 55.7508 16.348C55.3804 16.1751 54.9768 16.0867 54.5687 16.0889H32.0885C31.5654 16.0967 31.0552 16.2531 30.6164 16.5404C30.1777 16.8276 29.8283 17.2339 29.6085 17.7124C29.3888 18.191 29.3075 18.7224 29.3742 19.2454C29.4409 19.7685 29.6527 20.2619 29.9853 20.6689L46.6719 39.9889C47.0436 40.4164 47.5349 40.7207 48.0812 40.8618C48.6276 41.0029 49.2035 40.9743 49.7334 40.7796C50.2633 40.585 50.7225 40.2335 51.0507 39.7711C51.3789 39.3088 51.5609 38.7573 51.5727 38.1889L51.7314 26.6089C51.7414 25.9944 51.9504 25.4 52.3265 24.9162C52.7026 24.4324 53.2252 24.0857 53.8147 23.9289L56.6124 23.1689C57.0646 23.0461 57.4791 22.8109 57.8177 22.4847C58.1564 22.1585 58.4083 21.7518 58.5505 21.3019C58.6926 20.8521 58.7205 20.3734 58.6315 19.9099C58.5424 19.4464 58.3394 19.0128 58.0409 18.6489L56.7115 17.0889Z" fill="#00FF00"/>
<path d="M68.7572 32.4889H65.543V16.0889H68.4794L74.8882 26.4089V16.0889H78.0826V32.4889H75.3048L68.7374 22.1489L68.7572 32.4889Z" fill="#EEEEEE"/>
<path d="M87.1286 27.8289L91.0969 16.0889H94.5294L88.577 32.4889H85.6008L79.6484 16.0889H83.1009L87.1286 27.8289Z" fill="#EEEEEE"/>
<path d="M100.085 32.4889H96.8711V16.0889H100.085V32.4889Z" fill="#EEEEEE"/>
<path d="M117.567 25.9889L121.039 32.4889H117.408L114.471 26.4889H112.249V32.4889H109.055V16.0889H114.868C118.836 16.0889 120.821 17.8289 120.821 21.3289C120.854 22.3938 120.54 23.4404 119.928 24.3089C119.346 25.1162 118.516 25.7069 117.567 25.9889ZM112.249 23.9889H115.067C115.406 24.0051 115.744 23.9474 116.059 23.8197C116.374 23.692 116.658 23.4973 116.892 23.2489C117.126 22.9975 117.307 22.7018 117.426 22.3791C117.546 22.0564 117.6 21.713 117.586 21.3689C117.641 20.998 117.609 20.6193 117.491 20.2636C117.373 19.9079 117.173 19.5853 116.908 19.3221C116.644 19.0589 116.321 18.8625 115.966 18.749C115.611 18.6355 115.235 18.608 114.868 18.6689H112.249V23.9889Z" fill="#EEEEEE"/>
<path d="M133.578 32.4889H123.34V16.0889H133.419V18.6689H126.475V22.8689H132.963V25.4889H126.475V29.8689H133.499L133.578 32.4889Z" fill="#EEEEEE"/>
<path d="M141.972 32.6688C140.362 32.7341 138.774 32.2709 137.448 31.3488C136.853 30.8764 136.379 30.266 136.068 29.5695C135.758 28.8731 135.618 28.1112 135.662 27.3488H138.698C138.685 27.7546 138.754 28.1589 138.901 28.537C139.047 28.9152 139.269 29.2594 139.551 29.5488C140.27 30.0497 141.14 30.283 142.011 30.2088C142.727 30.2381 143.43 30.0114 143.996 29.5688C144.228 29.3785 144.415 29.1374 144.543 28.8637C144.67 28.5901 144.734 28.291 144.73 27.9888C144.732 27.7101 144.665 27.4353 144.533 27.1903C144.401 26.9454 144.209 26.7383 143.976 26.5888C143.161 26.1286 142.286 25.7852 141.377 25.5688C140.351 25.2739 139.349 24.8995 138.38 24.4488C137.659 24.0923 137.051 23.5406 136.624 22.8553C136.196 22.17 135.966 21.3783 135.96 20.5688C135.938 19.9124 136.077 19.2607 136.364 18.6712C136.651 18.0818 137.078 17.5726 137.607 17.1888C138.857 16.2991 140.363 15.8492 141.892 15.9088C143.351 15.8725 144.781 16.3224 145.96 17.1888C146.523 17.6173 146.974 18.1789 147.271 18.8241C147.569 19.4693 147.704 20.1783 147.666 20.8888H144.63C144.63 19.2488 143.718 18.4088 141.892 18.4088C141.191 18.3723 140.496 18.5614 139.908 18.9488C139.669 19.1368 139.479 19.3809 139.355 19.6597C139.23 19.9385 139.175 20.2437 139.194 20.5488C139.196 20.8232 139.27 21.0921 139.41 21.3276C139.549 21.5632 139.749 21.757 139.988 21.8888C140.818 22.3511 141.705 22.7007 142.627 22.9288C143.652 23.1958 144.649 23.5643 145.603 24.0288C146.3 24.355 146.902 24.8581 147.349 25.4888C147.777 26.1562 148.004 26.9341 148.004 27.7288C148.029 28.4219 147.898 29.1118 147.62 29.746C147.341 30.3803 146.923 30.9421 146.396 31.3888C145.12 32.3331 143.551 32.787 141.972 32.6688Z" fill="#EEEEEE"/>
<path d="M160.662 32.4889H150.424V16.0889H160.483V18.6689H153.638V22.8689H160.206V25.4889H153.737V29.8689H160.761L160.662 32.4889Z" fill="#EEEEEE"/>
<path d="M176.555 32.4889H173.123L172.111 29.0089H166.595L165.464 32.4889H162.031L167.984 16.0889H170.821L176.555 32.4889ZM169.253 20.4889L167.269 26.4889H171.119L169.253 20.4889Z" fill="#EEEEEE"/>
<path d="M186.674 25.9889L190.146 32.4889H186.535L183.578 26.4889H181.376V32.4889H178.182V16.0889H184.015C187.983 16.0889 189.967 17.8289 189.967 21.3289C190 22.3938 189.687 23.4404 189.074 24.3089C188.485 25.1257 187.639 25.7177 186.674 25.9889ZM181.376 23.9889H184.174C184.516 24.0054 184.858 23.9478 185.176 23.8202C185.494 23.6926 185.782 23.4978 186.019 23.2489C186.25 22.9965 186.428 22.7002 186.544 22.3774C186.66 22.0546 186.711 21.7117 186.694 21.3689C186.751 21.001 186.722 20.6247 186.608 20.2705C186.494 19.9163 186.298 19.5944 186.037 19.3311C185.775 19.0677 185.456 18.8705 185.105 18.7554C184.753 18.6403 184.38 18.6106 184.015 18.6689H181.396L181.376 23.9889Z" fill="#EEEEEE"/>
<path d="M198.837 32.6688C197.854 32.7221 196.872 32.55 195.965 32.1655C195.057 31.7809 194.248 31.194 193.599 30.4487C192.249 28.5583 191.596 26.2524 191.753 23.9287C191.639 21.7479 192.348 19.6041 193.738 17.9287C194.399 17.2265 195.201 16.6743 196.09 16.3087C196.98 15.9432 197.936 15.7727 198.896 15.8087C200.558 15.7409 202.181 16.3292 203.42 17.4487C203.997 17.9988 204.45 18.6674 204.747 19.4094C205.045 20.1513 205.181 20.9492 205.146 21.7488H202.091C201.991 19.5688 200.92 18.4888 198.896 18.4888C198.351 18.459 197.807 18.568 197.315 18.8057C196.823 19.0433 196.398 19.402 196.079 19.8487C195.332 21.0852 194.986 22.525 195.087 23.9688C194.988 25.5524 195.331 27.1322 196.079 28.5288C196.373 29.0106 196.789 29.4051 197.284 29.6722C197.779 29.9392 198.335 30.0691 198.896 30.0488C199.325 30.0957 199.76 30.0454 200.167 29.9015C200.574 29.7576 200.945 29.5237 201.251 29.217C201.557 28.9103 201.791 28.5384 201.937 28.1287C202.082 27.7189 202.135 27.2816 202.091 26.8487H205.146C205.181 27.6472 205.043 28.4437 204.742 29.1829C204.44 29.922 203.982 30.5861 203.4 31.1288C202.138 32.2258 200.499 32.7789 198.837 32.6688Z" fill="#EEEEEE"/>
<path d="M210.503 32.4889H207.289V16.0889H210.503V22.9689H216.912V16.0889H220.107V32.4889H216.912V25.6089H210.503V32.4889Z" fill="#EEEEEE"/>
</svg>
